<svg id="svg" version="1.1" width="512" height="512" xmlns="http://www.w3.org/2000/svg" xmlns:xlink="http://www.w3.org/1999/xlink" style="display: block;"><g id="svgg"><path id="path0" d="M25.919 33.648 C 16.357 35.530,7.329 42.591,2.729 51.786 L -0.000 57.241 0.000 69.887 L 0.000 82.532 5.050 86.579 C 105.732 167.261,184.630 219.436,202.011 216.829 C 223.298 213.637,287.936 171.314,373.438 104.584 C 381.387 98.380,390.620 91.207,393.955 88.644 L 400.020 83.984 399.815 70.682 L 399.609 57.381 396.938 51.958 C 392.315 42.576,383.706 35.839,373.594 33.692 C 368.595 32.630,31.307 32.588,25.919 33.648 M389.844 140.316 C 296.312 212.789,220.188 261.593,200.308 261.830 C 182.401 262.044,123.449 225.075,26.729 152.979 C 12.426 142.317,0.560 133.594,0.362 133.594 C 0.163 133.594,-0.000 180.656,-0.000 238.176 L -0.000 342.759 2.729 348.214 C 7.480 357.710,16.319 364.464,26.531 366.400 C 32.679 367.566,368.085 367.478,373.594 366.309 C 382.290 364.464,389.611 359.526,394.494 352.213 C 400.392 343.382,400.029 351.317,399.808 236.087 L 399.609 132.749 389.844 140.316 " stroke="none" fill="#000000" fill-rule="evenodd"></path><path id="path1" d="M25.919 33.648 C 16.357 35.530,7.329 42.591,2.729 51.786 L -0.000 57.241 0.000 69.887 L 0.000 82.532 5.050 86.579 C 105.732 167.261,184.630 219.436,202.011 216.829 C 223.298 213.637,287.936 171.314,373.438 104.584 C 381.387 98.380,390.620 91.207,393.955 88.644 L 400.020 83.984 399.815 70.682 L 399.609 57.381 396.938 51.958 C 392.315 42.576,383.706 35.839,373.594 33.692 C 368.595 32.630,31.307 32.588,25.919 33.648 M389.844 140.316 C 296.312 212.789,220.188 261.593,200.308 261.830 C 182.401 262.044,123.449 225.075,26.729 152.979 C 12.426 142.317,0.560 133.594,0.362 133.594 C 0.163 133.594,-0.000 180.656,-0.000 238.176 L -0.000 342.759 2.729 348.214 C 7.480 357.710,16.319 364.464,26.531 366.400 C 32.679 367.566,368.085 367.478,373.594 366.309 C 382.290 364.464,389.611 359.526,394.494 352.213 C 400.392 343.382,400.029 351.317,399.808 236.087 L 399.609 132.749 389.844 140.316 " stroke="none" fill="#000000" fill-rule="evenodd"></path><path id="path2" d="M25.919 33.648 C 16.357 35.530,7.329 42.591,2.729 51.786 L -0.000 57.241 0.000 69.887 L 0.000 82.532 5.050 86.579 C 105.732 167.261,184.630 219.436,202.011 216.829 C 223.298 213.637,287.936 171.314,373.438 104.584 C 381.387 98.380,390.620 91.207,393.955 88.644 L 400.020 83.984 399.815 70.682 L 399.609 57.381 396.938 51.958 C 392.315 42.576,383.706 35.839,373.594 33.692 C 368.595 32.630,31.307 32.588,25.919 33.648 M389.844 140.316 C 296.312 212.789,220.188 261.593,200.308 261.830 C 182.401 262.044,123.449 225.075,26.729 152.979 C 12.426 142.317,0.560 133.594,0.362 133.594 C 0.163 133.594,-0.000 180.656,-0.000 238.176 L -0.000 342.759 2.729 348.214 C 7.480 357.710,16.319 364.464,26.531 366.400 C 32.679 367.566,368.085 367.478,373.594 366.309 C 382.290 364.464,389.611 359.526,394.494 352.213 C 400.392 343.382,400.029 351.317,399.808 236.087 L 399.609 132.749 389.844 140.316 " stroke="none" fill="#000000" fill-rule="evenodd"></path><path id="path3" d="M25.919 33.648 C 16.357 35.530,7.329 42.591,2.729 51.786 L -0.000 57.241 0.000 69.887 L 0.000 82.532 5.050 86.579 C 105.732 167.261,184.630 219.436,202.011 216.829 C 223.298 213.637,287.936 171.314,373.438 104.584 C 381.387 98.380,390.620 91.207,393.955 88.644 L 400.020 83.984 399.815 70.682 L 399.609 57.381 396.938 51.958 C 392.315 42.576,383.706 35.839,373.594 33.692 C 368.595 32.630,31.307 32.588,25.919 33.648 M389.844 140.316 C 296.312 212.789,220.188 261.593,200.308 261.830 C 182.401 262.044,123.449 225.075,26.729 152.979 C 12.426 142.317,0.560 133.594,0.362 133.594 C 0.163 133.594,-0.000 180.656,-0.000 238.176 L -0.000 342.759 2.729 348.214 C 7.480 357.710,16.319 364.464,26.531 366.400 C 32.679 367.566,368.085 367.478,373.594 366.309 C 382.290 364.464,389.611 359.526,394.494 352.213 C 400.392 343.382,400.029 351.317,399.808 236.087 L 399.609 132.749 389.844 140.316 " stroke="none" fill="#000000" fill-rule="evenodd"></path><path id="path4" d="M25.919 33.648 C 16.357 35.530,7.329 42.591,2.729 51.786 L -0.000 57.241 0.000 69.887 L 0.000 82.532 5.050 86.579 C 105.732 167.261,184.630 219.436,202.011 216.829 C 223.298 213.637,287.936 171.314,373.438 104.584 C 381.387 98.380,390.620 91.207,393.955 88.644 L 400.020 83.984 399.815 70.682 L 399.609 57.381 396.938 51.958 C 392.315 42.576,383.706 35.839,373.594 33.692 C 368.595 32.630,31.307 32.588,25.919 33.648 M389.844 140.316 C 296.312 212.789,220.188 261.593,200.308 261.830 C 182.401 262.044,123.449 225.075,26.729 152.979 C 12.426 142.317,0.560 133.594,0.362 133.594 C 0.163 133.594,-0.000 180.656,-0.000 238.176 L -0.000 342.759 2.729 348.214 C 7.480 357.710,16.319 364.464,26.531 366.400 C 32.679 367.566,368.085 367.478,373.594 366.309 C 382.290 364.464,389.611 359.526,394.494 352.213 C 400.392 343.382,400.029 351.317,399.808 236.087 L 399.609 132.749 389.844 140.316 " stroke="none" fill="#000000" fill-rule="evenodd"></path></g></svg>