<svg id="svg" version="1.1" width="500" height="500" xmlns="http://www.w3.org/2000/svg" xmlns:xlink="http://www.w3.org/1999/xlink" style="display: block;"><g id="svgg"><path id="path0" d="M0.000 23.200 L 0.000 46.400 200.000 46.400 L 400.000 46.400 400.000 23.200 L 400.000 0.000 200.000 0.000 L 0.000 0.000 0.000 23.200 M154.400 124.000 L 154.400 146.400 277.200 146.400 L 400.000 146.400 400.000 124.000 L 400.000 101.600 277.200 101.600 L 154.400 101.600 154.400 124.000 M0.000 226.000 L 0.000 250.400 200.000 250.400 L 400.000 250.400 400.000 226.000 L 400.000 201.600 200.000 201.600 L 0.000 201.600 0.000 226.000 M162.400 355.600 C 162.400 357.200,162.000 357.600,160.400 357.600 C 158.800 357.600,158.400 358.000,158.400 359.600 C 158.400 361.200,158.000 361.600,156.400 361.600 L 154.400 361.600 154.400 374.000 L 154.400 386.400 156.400 386.400 C 158.000 386.400,158.400 386.800,158.400 388.400 C 158.400 390.000,158.800 390.400,160.400 390.400 C 162.000 390.400,162.400 390.800,162.400 392.400 C 162.400 394.000,162.800 394.400,164.400 394.400 C 166.152 394.400,166.400 394.747,166.400 397.200 L 166.400 400.000 174.400 400.000 L 182.400 400.000 182.400 397.200 L 182.400 394.400 186.400 394.400 C 190.133 394.400,190.400 394.267,190.400 392.400 C 190.400 390.800,190.800 390.400,192.400 390.400 C 194.267 390.400,194.400 390.133,194.400 386.400 C 194.400 382.667,194.533 382.400,196.400 382.400 L 198.400 382.400 198.400 374.000 L 198.400 365.600 196.400 365.600 C 194.800 365.600,194.400 365.200,194.400 363.600 C 194.400 362.000,194.000 361.600,192.400 361.600 C 190.800 361.600,190.400 361.200,190.400 359.600 C 190.400 358.000,190.000 357.600,188.400 357.600 C 186.800 357.600,186.400 357.200,186.400 355.600 L 186.400 353.600 174.400 353.600 L 162.400 353.600 162.400 355.600 M262.400 355.600 C 262.400 357.200,262.000 357.600,260.400 357.600 C 258.800 357.600,258.400 358.000,258.400 359.600 C 258.400 361.200,258.000 361.600,256.400 361.600 L 254.400 361.600 254.400 374.000 L 254.400 386.400 256.400 386.400 C 258.000 386.400,258.400 386.800,258.400 388.400 C 258.400 390.000,258.800 390.400,260.400 390.400 C 262.000 390.400,262.400 390.800,262.400 392.400 C 262.400 394.000,262.800 394.400,264.400 394.400 C 266.152 394.400,266.400 394.747,266.400 397.200 L 266.400 400.000 274.400 400.000 L 282.400 400.000 282.400 397.200 L 282.400 394.400 286.400 394.400 C 290.133 394.400,290.400 394.267,290.400 392.400 C 290.400 390.800,290.800 390.400,292.400 390.400 C 294.267 390.400,294.400 390.133,294.400 386.400 C 294.400 382.667,294.533 382.400,296.400 382.400 L 298.400 382.400 298.400 374.000 L 298.400 365.600 296.400 365.600 C 294.800 365.600,294.400 365.200,294.400 363.600 C 294.400 362.000,294.000 361.600,292.400 361.600 C 290.800 361.600,290.400 361.200,290.400 359.600 C 290.400 358.000,290.000 357.600,288.400 357.600 C 286.800 357.600,286.400 357.200,286.400 355.600 L 286.400 353.600 274.400 353.600 L 262.400 353.600 262.400 355.600 M362.400 355.600 C 362.400 357.200,362.000 357.600,360.400 357.600 C 358.800 357.600,358.400 358.000,358.400 359.600 C 358.400 361.200,358.000 361.600,356.400 361.600 L 354.400 361.600 354.400 374.000 L 354.400 386.400 356.400 386.400 C 358.000 386.400,358.400 386.800,358.400 388.400 C 358.400 390.000,358.800 390.400,360.400 390.400 C 362.000 390.400,362.400 390.800,362.400 392.400 C 362.400 394.000,362.800 394.400,364.400 394.400 C 366.152 394.400,366.400 394.747,366.400 397.200 L 366.400 400.000 374.400 400.000 L 382.400 400.000 382.400 397.200 L 382.400 394.400 386.400 394.400 C 390.133 394.400,390.400 394.267,390.400 392.400 C 390.400 390.800,390.800 390.400,392.400 390.400 C 394.267 390.400,394.400 390.133,394.400 386.400 L 394.400 382.400 397.200 382.400 L 400.000 382.400 400.000 374.000 L 400.000 365.600 397.200 365.600 C 394.747 365.600,394.400 365.352,394.400 363.600 C 394.400 362.000,394.000 361.600,392.400 361.600 C 390.800 361.600,390.400 361.200,390.400 359.600 C 390.400 358.000,390.000 357.600,388.400 357.600 C 386.800 357.600,386.400 357.200,386.400 355.600 L 386.400 353.600 374.400 353.600 L 362.400 353.600 362.400 355.600 " stroke="none" fill="#fff" fill-rule="evenodd"></path><path id="path1" d="M0.000 50.000 L 0.000 53.600 200.000 53.600 L 400.000 53.600 400.000 50.000 L 400.000 46.400 200.000 46.400 L 0.000 46.400 0.000 50.000 M146.400 126.000 L 146.400 153.600 273.200 153.600 L 400.000 153.600 400.000 150.000 L 400.000 146.400 277.200 146.400 L 154.400 146.400 154.400 124.000 L 154.400 101.600 277.200 101.600 C 399.467 101.600,400.000 101.593,400.000 100.000 C 400.000 98.407,399.467 98.400,273.200 98.400 L 146.400 98.400 146.400 126.000 M0.000 200.000 C 0.000 201.596,0.533 201.600,200.000 201.600 C 399.467 201.600,400.000 201.596,400.000 200.000 C 400.000 198.404,399.467 198.400,200.000 198.400 C 0.533 198.400,0.000 198.404,0.000 200.000 M0.000 252.000 C 0.000 253.596,0.533 253.600,200.000 253.600 C 399.467 253.600,400.000 253.596,400.000 252.000 C 400.000 250.404,399.467 250.400,200.000 250.400 C 0.533 250.400,0.000 250.404,0.000 252.000 M162.400 348.356 C 162.400 350.122,162.031 350.336,158.600 350.556 C 155.391 350.762,154.761 351.072,154.551 352.551 C 154.396 353.642,153.642 354.396,152.551 354.551 C 151.072 354.761,150.762 355.391,150.556 358.600 C 150.336 362.031,150.122 362.400,148.356 362.400 L 146.400 362.400 146.400 373.685 C 146.400 384.769,146.436 384.998,148.400 386.543 C 149.838 387.674,150.400 388.886,150.400 390.858 C 150.400 393.249,150.656 393.600,152.400 393.600 C 154.000 393.600,154.400 394.000,154.400 395.600 C 154.400 397.200,154.800 397.600,156.400 397.600 C 157.644 397.600,158.400 398.053,158.400 398.800 C 158.400 399.707,159.378 400.000,162.400 400.000 L 166.400 400.000 166.400 397.200 C 166.400 394.747,166.152 394.400,164.400 394.400 C 162.800 394.400,162.400 394.000,162.400 392.400 C 162.400 390.800,162.000 390.400,160.400 390.400 C 158.800 390.400,158.400 390.000,158.400 388.400 C 158.400 386.800,158.000 386.400,156.400 386.400 L 154.400 386.400 154.400 374.000 L 154.400 361.600 156.400 361.600 C 158.000 361.600,158.400 361.200,158.400 359.600 C 158.400 358.000,158.800 357.600,160.400 357.600 C 162.000 357.600,162.400 357.200,162.400 355.600 L 162.400 353.600 174.400 353.600 L 186.400 353.600 186.400 355.600 C 186.400 357.200,186.800 357.600,188.400 357.600 C 190.000 357.600,190.400 358.000,190.400 359.600 C 190.400 361.200,190.800 361.600,192.400 361.600 C 194.000 361.600,194.400 362.000,194.400 363.600 C 194.400 365.200,194.800 365.600,196.400 365.600 L 198.400 365.600 198.400 374.000 L 198.400 382.400 196.400 382.400 C 194.533 382.400,194.400 382.667,194.400 386.400 C 194.400 390.133,194.267 390.400,192.400 390.400 C 190.800 390.400,190.400 390.800,190.400 392.400 C 190.400 394.267,190.133 394.400,186.400 394.400 L 182.400 394.400 182.400 397.200 L 182.400 400.000 186.400 400.000 C 189.422 400.000,190.400 399.707,190.400 398.800 C 190.400 397.919,191.316 397.600,193.846 397.600 C 197.249 397.600,197.302 397.557,198.046 394.200 C 198.561 391.880,199.372 390.549,200.600 390.010 C 202.369 389.234,202.400 388.977,202.400 375.076 C 202.400 359.751,202.199 358.400,199.914 358.400 C 198.832 358.400,198.400 357.829,198.400 356.400 C 198.400 354.815,197.996 354.400,196.456 354.400 C 195.048 354.400,194.441 353.903,194.256 352.600 C 194.083 351.385,193.355 350.709,192.018 350.521 C 190.928 350.367,189.235 349.377,188.256 348.321 C 186.529 346.457,186.118 346.400,174.438 346.400 L 162.400 346.400 162.400 348.356 M262.400 348.356 C 262.400 350.122,262.031 350.336,258.600 350.556 C 255.391 350.762,254.761 351.072,254.551 352.551 C 254.396 353.642,253.642 354.396,252.551 354.551 C 251.072 354.761,250.762 355.391,250.556 358.600 C 250.336 362.031,250.122 362.400,248.356 362.400 L 246.400 362.400 246.400 373.685 C 246.400 384.769,246.436 384.998,248.400 386.543 C 249.838 387.674,250.400 388.886,250.400 390.858 C 250.400 393.249,250.656 393.600,252.400 393.600 C 254.000 393.600,254.400 394.000,254.400 395.600 C 254.400 397.200,254.800 397.600,256.400 397.600 C 257.644 397.600,258.400 398.053,258.400 398.800 C 258.400 399.707,259.378 400.000,262.400 400.000 L 266.400 400.000 266.400 397.200 C 266.400 394.747,266.152 394.400,264.400 394.400 C 262.800 394.400,262.400 394.000,262.400 392.400 C 262.400 390.800,262.000 390.400,260.400 390.400 C 258.800 390.400,258.400 390.000,258.400 388.400 C 258.400 386.800,258.000 386.400,256.400 386.400 L 254.400 386.400 254.400 374.000 L 254.400 361.600 256.400 361.600 C 258.000 361.600,258.400 361.200,258.400 359.600 C 258.400 358.000,258.800 357.600,260.400 357.600 C 262.000 357.600,262.400 357.200,262.400 355.600 L 262.400 353.600 274.400 353.600 L 286.400 353.600 286.400 355.600 C 286.400 357.200,286.800 357.600,288.400 357.600 C 290.000 357.600,290.400 358.000,290.400 359.600 C 290.400 361.200,290.800 361.600,292.400 361.600 C 294.000 361.600,294.400 362.000,294.400 363.600 C 294.400 365.200,294.800 365.600,296.400 365.600 L 298.400 365.600 298.400 374.000 L 298.400 382.400 296.400 382.400 C 294.533 382.400,294.400 382.667,294.400 386.400 C 294.400 390.133,294.267 390.400,292.400 390.400 C 290.800 390.400,290.400 390.800,290.400 392.400 C 290.400 394.267,290.133 394.400,286.400 394.400 L 282.400 394.400 282.400 397.200 L 282.400 400.000 286.400 400.000 C 289.422 400.000,290.400 399.707,290.400 398.800 C 290.400 397.911,291.333 397.600,294.000 397.600 C 297.199 397.600,297.600 397.399,297.604 395.800 C 297.606 394.810,298.686 392.850,300.004 391.443 L 302.400 388.887 302.400 374.909 C 302.400 359.755,302.196 358.400,299.914 358.400 C 298.832 358.400,298.400 357.829,298.400 356.400 C 298.400 354.815,297.996 354.400,296.456 354.400 C 295.048 354.400,294.441 353.903,294.256 352.600 C 294.083 351.385,293.355 350.709,292.018 350.521 C 290.928 350.367,289.235 349.377,288.256 348.321 C 286.529 346.457,286.118 346.400,274.438 346.400 L 262.400 346.400 262.400 348.356 M362.400 348.356 C 362.400 350.122,362.031 350.336,358.600 350.556 C 355.391 350.762,354.761 351.072,354.551 352.551 C 354.396 353.642,353.642 354.396,352.551 354.551 C 351.072 354.761,350.762 355.391,350.556 358.600 C 350.336 362.031,350.122 362.400,348.356 362.400 L 346.400 362.400 346.400 373.685 C 346.400 384.769,346.436 384.998,348.400 386.543 C 349.838 387.674,350.400 388.886,350.400 390.858 C 350.400 393.249,350.656 393.600,352.400 393.600 C 354.000 393.600,354.400 394.000,354.400 395.600 C 354.400 397.200,354.800 397.600,356.400 397.600 C 357.644 397.600,358.400 398.053,358.400 398.800 C 358.400 399.707,359.378 400.000,362.400 400.000 L 366.400 400.000 366.400 397.200 C 366.400 394.747,366.152 394.400,364.400 394.400 C 362.800 394.400,362.400 394.000,362.400 392.400 C 362.400 390.800,362.000 390.400,360.400 390.400 C 358.800 390.400,358.400 390.000,358.400 388.400 C 358.400 386.800,358.000 386.400,356.400 386.400 L 354.400 386.400 354.400 374.000 L 354.400 361.600 356.400 361.600 C 358.000 361.600,358.400 361.200,358.400 359.600 C 358.400 358.000,358.800 357.600,360.400 357.600 C 362.000 357.600,362.400 357.200,362.400 355.600 L 362.400 353.600 374.400 353.600 L 386.400 353.600 386.400 355.600 C 386.400 357.200,386.800 357.600,388.400 357.600 C 390.000 357.600,390.400 358.000,390.400 359.600 C 390.400 361.200,390.800 361.600,392.400 361.600 C 394.000 361.600,394.400 362.000,394.400 363.600 C 394.400 365.352,394.747 365.600,397.200 365.600 C 399.985 365.600,400.000 365.581,400.000 362.000 C 400.000 360.020,399.640 358.400,399.200 358.400 C 398.760 358.400,398.400 357.500,398.400 356.400 C 398.400 354.815,397.996 354.400,396.456 354.400 C 395.048 354.400,394.441 353.903,394.256 352.600 C 394.083 351.385,393.355 350.709,392.018 350.521 C 390.928 350.367,389.235 349.377,388.256 348.321 C 386.529 346.457,386.118 346.400,374.438 346.400 L 362.400 346.400 362.400 348.356 M394.400 386.400 C 394.400 390.133,394.267 390.400,392.400 390.400 C 390.800 390.400,390.400 390.800,390.400 392.400 C 390.400 394.267,390.133 394.400,386.400 394.400 L 382.400 394.400 382.400 397.200 L 382.400 400.000 386.400 400.000 C 389.422 400.000,390.400 399.707,390.400 398.800 C 390.400 397.911,391.333 397.600,394.000 397.600 C 397.278 397.600,397.600 397.426,397.600 395.657 C 397.600 394.589,398.140 393.174,398.800 392.514 C 399.579 391.735,400.000 389.752,400.000 386.857 L 400.000 382.400 397.200 382.400 L 394.400 382.400 394.400 386.400 " stroke="none" fill="#fff" fill-rule="evenodd"></path><path id="path2" d="M0.000 50.000 L 0.000 53.600 200.000 53.600 L 400.000 53.600 400.000 50.000 L 400.000 46.400 200.000 46.400 L 0.000 46.400 0.000 50.000 M146.400 126.000 L 146.400 153.600 273.200 153.600 L 400.000 153.600 400.000 150.000 L 400.000 146.400 277.200 146.400 L 154.400 146.400 154.400 124.000 L 154.400 101.600 277.200 101.600 C 399.467 101.600,400.000 101.593,400.000 100.000 C 400.000 98.407,399.467 98.400,273.200 98.400 L 146.400 98.400 146.400 126.000 M0.000 200.000 C 0.000 201.596,0.533 201.600,200.000 201.600 C 399.467 201.600,400.000 201.596,400.000 200.000 C 400.000 198.404,399.467 198.400,200.000 198.400 C 0.533 198.400,0.000 198.404,0.000 200.000 M0.000 252.000 C 0.000 253.596,0.533 253.600,200.000 253.600 C 399.467 253.600,400.000 253.596,400.000 252.000 C 400.000 250.404,399.467 250.400,200.000 250.400 C 0.533 250.400,0.000 250.404,0.000 252.000 M162.400 348.356 C 162.400 350.122,162.031 350.336,158.600 350.556 C 155.391 350.762,154.761 351.072,154.551 352.551 C 154.396 353.642,153.642 354.396,152.551 354.551 C 151.072 354.761,150.762 355.391,150.556 358.600 C 150.336 362.031,150.122 362.400,148.356 362.400 L 146.400 362.400 146.400 373.685 C 146.400 384.769,146.436 384.998,148.400 386.543 C 149.838 387.674,150.400 388.886,150.400 390.858 C 150.400 393.249,150.656 393.600,152.400 393.600 C 154.000 393.600,154.400 394.000,154.400 395.600 C 154.400 397.200,154.800 397.600,156.400 397.600 C 157.644 397.600,158.400 398.053,158.400 398.800 C 158.400 399.707,159.378 400.000,162.400 400.000 L 166.400 400.000 166.400 397.200 C 166.400 394.747,166.152 394.400,164.400 394.400 C 162.800 394.400,162.400 394.000,162.400 392.400 C 162.400 390.800,162.000 390.400,160.400 390.400 C 158.800 390.400,158.400 390.000,158.400 388.400 C 158.400 386.800,158.000 386.400,156.400 386.400 L 154.400 386.400 154.400 374.000 L 154.400 361.600 156.400 361.600 C 158.000 361.600,158.400 361.200,158.400 359.600 C 158.400 358.000,158.800 357.600,160.400 357.600 C 162.000 357.600,162.400 357.200,162.400 355.600 L 162.400 353.600 174.400 353.600 L 186.400 353.600 186.400 355.600 C 186.400 357.200,186.800 357.600,188.400 357.600 C 190.000 357.600,190.400 358.000,190.400 359.600 C 190.400 361.200,190.800 361.600,192.400 361.600 C 194.000 361.600,194.400 362.000,194.400 363.600 C 194.400 365.200,194.800 365.600,196.400 365.600 L 198.400 365.600 198.400 374.000 L 198.400 382.400 196.400 382.400 C 194.533 382.400,194.400 382.667,194.400 386.400 C 194.400 390.133,194.267 390.400,192.400 390.400 C 190.800 390.400,190.400 390.800,190.400 392.400 C 190.400 394.267,190.133 394.400,186.400 394.400 L 182.400 394.400 182.400 397.200 L 182.400 400.000 186.400 400.000 C 189.422 400.000,190.400 399.707,190.400 398.800 C 190.400 397.919,191.316 397.600,193.846 397.600 C 197.249 397.600,197.302 397.557,198.046 394.200 C 198.561 391.880,199.372 390.549,200.600 390.010 C 202.369 389.234,202.400 388.977,202.400 375.076 C 202.400 359.751,202.199 358.400,199.914 358.400 C 198.832 358.400,198.400 357.829,198.400 356.400 C 198.400 354.815,197.996 354.400,196.456 354.400 C 195.048 354.400,194.441 353.903,194.256 352.600 C 194.083 351.385,193.355 350.709,192.018 350.521 C 190.928 350.367,189.235 349.377,188.256 348.321 C 186.529 346.457,186.118 346.400,174.438 346.400 L 162.400 346.400 162.400 348.356 M262.400 348.356 C 262.400 350.122,262.031 350.336,258.600 350.556 C 255.391 350.762,254.761 351.072,254.551 352.551 C 254.396 353.642,253.642 354.396,252.551 354.551 C 251.072 354.761,250.762 355.391,250.556 358.600 C 250.336 362.031,250.122 362.400,248.356 362.400 L 246.400 362.400 246.400 373.685 C 246.400 384.769,246.436 384.998,248.400 386.543 C 249.838 387.674,250.400 388.886,250.400 390.858 C 250.400 393.249,250.656 393.600,252.400 393.600 C 254.000 393.600,254.400 394.000,254.400 395.600 C 254.400 397.200,254.800 397.600,256.400 397.600 C 257.644 397.600,258.400 398.053,258.400 398.800 C 258.400 399.707,259.378 400.000,262.400 400.000 L 266.400 400.000 266.400 397.200 C 266.400 394.747,266.152 394.400,264.400 394.400 C 262.800 394.400,262.400 394.000,262.400 392.400 C 262.400 390.800,262.000 390.400,260.400 390.400 C 258.800 390.400,258.400 390.000,258.400 388.400 C 258.400 386.800,258.000 386.400,256.400 386.400 L 254.400 386.400 254.400 374.000 L 254.400 361.600 256.400 361.600 C 258.000 361.600,258.400 361.200,258.400 359.600 C 258.400 358.000,258.800 357.600,260.400 357.600 C 262.000 357.600,262.400 357.200,262.400 355.600 L 262.400 353.600 274.400 353.600 L 286.400 353.600 286.400 355.600 C 286.400 357.200,286.800 357.600,288.400 357.600 C 290.000 357.600,290.400 358.000,290.400 359.600 C 290.400 361.200,290.800 361.600,292.400 361.600 C 294.000 361.600,294.400 362.000,294.400 363.600 C 294.400 365.200,294.800 365.600,296.400 365.600 L 298.400 365.600 298.400 374.000 L 298.400 382.400 296.400 382.400 C 294.533 382.400,294.400 382.667,294.400 386.400 C 294.400 390.133,294.267 390.400,292.400 390.400 C 290.800 390.400,290.400 390.800,290.400 392.400 C 290.400 394.267,290.133 394.400,286.400 394.400 L 282.400 394.400 282.400 397.200 L 282.400 400.000 286.400 400.000 C 289.422 400.000,290.400 399.707,290.400 398.800 C 290.400 397.911,291.333 397.600,294.000 397.600 C 297.199 397.600,297.600 397.399,297.604 395.800 C 297.606 394.810,298.686 392.850,300.004 391.443 L 302.400 388.887 302.400 374.909 C 302.400 359.755,302.196 358.400,299.914 358.400 C 298.832 358.400,298.400 357.829,298.400 356.400 C 298.400 354.815,297.996 354.400,296.456 354.400 C 295.048 354.400,294.441 353.903,294.256 352.600 C 294.083 351.385,293.355 350.709,292.018 350.521 C 290.928 350.367,289.235 349.377,288.256 348.321 C 286.529 346.457,286.118 346.400,274.438 346.400 L 262.400 346.400 262.400 348.356 M362.400 348.356 C 362.400 350.122,362.031 350.336,358.600 350.556 C 355.391 350.762,354.761 351.072,354.551 352.551 C 354.396 353.642,353.642 354.396,352.551 354.551 C 351.072 354.761,350.762 355.391,350.556 358.600 C 350.336 362.031,350.122 362.400,348.356 362.400 L 346.400 362.400 346.400 373.685 C 346.400 384.769,346.436 384.998,348.400 386.543 C 349.838 387.674,350.400 388.886,350.400 390.858 C 350.400 393.249,350.656 393.600,352.400 393.600 C 354.000 393.600,354.400 394.000,354.400 395.600 C 354.400 397.200,354.800 397.600,356.400 397.600 C 357.644 397.600,358.400 398.053,358.400 398.800 C 358.400 399.707,359.378 400.000,362.400 400.000 L 366.400 400.000 366.400 397.200 C 366.400 394.747,366.152 394.400,364.400 394.400 C 362.800 394.400,362.400 394.000,362.400 392.400 C 362.400 390.800,362.000 390.400,360.400 390.400 C 358.800 390.400,358.400 390.000,358.400 388.400 C 358.400 386.800,358.000 386.400,356.400 386.400 L 354.400 386.400 354.400 374.000 L 354.400 361.600 356.400 361.600 C 358.000 361.600,358.400 361.200,358.400 359.600 C 358.400 358.000,358.800 357.600,360.400 357.600 C 362.000 357.600,362.400 357.200,362.400 355.600 L 362.400 353.600 374.400 353.600 L 386.400 353.600 386.400 355.600 C 386.400 357.200,386.800 357.600,388.400 357.600 C 390.000 357.600,390.400 358.000,390.400 359.600 C 390.400 361.200,390.800 361.600,392.400 361.600 C 394.000 361.600,394.400 362.000,394.400 363.600 C 394.400 365.352,394.747 365.600,397.200 365.600 C 399.985 365.600,400.000 365.581,400.000 362.000 C 400.000 360.020,399.640 358.400,399.200 358.400 C 398.760 358.400,398.400 357.500,398.400 356.400 C 398.400 354.815,397.996 354.400,396.456 354.400 C 395.048 354.400,394.441 353.903,394.256 352.600 C 394.083 351.385,393.355 350.709,392.018 350.521 C 390.928 350.367,389.235 349.377,388.256 348.321 C 386.529 346.457,386.118 346.400,374.438 346.400 L 362.400 346.400 362.400 348.356 M394.400 386.400 C 394.400 390.133,394.267 390.400,392.400 390.400 C 390.800 390.400,390.400 390.800,390.400 392.400 C 390.400 394.267,390.133 394.400,386.400 394.400 L 382.400 394.400 382.400 397.200 L 382.400 400.000 386.400 400.000 C 389.422 400.000,390.400 399.707,390.400 398.800 C 390.400 397.911,391.333 397.600,394.000 397.600 C 397.278 397.600,397.600 397.426,397.600 395.657 C 397.600 394.589,398.140 393.174,398.800 392.514 C 399.579 391.735,400.000 389.752,400.000 386.857 L 400.000 382.400 397.200 382.400 L 394.400 382.400 394.400 386.400 " stroke="none" fill="#fff" fill-rule="evenodd"></path><path id="path3" d="M0.000 50.000 L 0.000 53.600 200.000 53.600 L 400.000 53.600 400.000 50.000 L 400.000 46.400 200.000 46.400 L 0.000 46.400 0.000 50.000 M146.400 126.000 L 146.400 153.600 273.200 153.600 L 400.000 153.600 400.000 150.000 L 400.000 146.400 277.200 146.400 L 154.400 146.400 154.400 124.000 L 154.400 101.600 277.200 101.600 C 399.467 101.600,400.000 101.593,400.000 100.000 C 400.000 98.407,399.467 98.400,273.200 98.400 L 146.400 98.400 146.400 126.000 M0.000 200.000 C 0.000 201.596,0.533 201.600,200.000 201.600 C 399.467 201.600,400.000 201.596,400.000 200.000 C 400.000 198.404,399.467 198.400,200.000 198.400 C 0.533 198.400,0.000 198.404,0.000 200.000 M0.000 252.000 C 0.000 253.596,0.533 253.600,200.000 253.600 C 399.467 253.600,400.000 253.596,400.000 252.000 C 400.000 250.404,399.467 250.400,200.000 250.400 C 0.533 250.400,0.000 250.404,0.000 252.000 M162.400 348.356 C 162.400 350.122,162.031 350.336,158.600 350.556 C 155.391 350.762,154.761 351.072,154.551 352.551 C 154.396 353.642,153.642 354.396,152.551 354.551 C 151.072 354.761,150.762 355.391,150.556 358.600 C 150.336 362.031,150.122 362.400,148.356 362.400 L 146.400 362.400 146.400 373.685 C 146.400 384.769,146.436 384.998,148.400 386.543 C 149.838 387.674,150.400 388.886,150.400 390.858 C 150.400 393.249,150.656 393.600,152.400 393.600 C 154.000 393.600,154.400 394.000,154.400 395.600 C 154.400 397.200,154.800 397.600,156.400 397.600 C 157.644 397.600,158.400 398.053,158.400 398.800 C 158.400 399.707,159.378 400.000,162.400 400.000 L 166.400 400.000 166.400 397.200 C 166.400 394.747,166.152 394.400,164.400 394.400 C 162.800 394.400,162.400 394.000,162.400 392.400 C 162.400 390.800,162.000 390.400,160.400 390.400 C 158.800 390.400,158.400 390.000,158.400 388.400 C 158.400 386.800,158.000 386.400,156.400 386.400 L 154.400 386.400 154.400 374.000 L 154.400 361.600 156.400 361.600 C 158.000 361.600,158.400 361.200,158.400 359.600 C 158.400 358.000,158.800 357.600,160.400 357.600 C 162.000 357.600,162.400 357.200,162.400 355.600 L 162.400 353.600 174.400 353.600 L 186.400 353.600 186.400 355.600 C 186.400 357.200,186.800 357.600,188.400 357.600 C 190.000 357.600,190.400 358.000,190.400 359.600 C 190.400 361.200,190.800 361.600,192.400 361.600 C 194.000 361.600,194.400 362.000,194.400 363.600 C 194.400 365.200,194.800 365.600,196.400 365.600 L 198.400 365.600 198.400 374.000 L 198.400 382.400 196.400 382.400 C 194.533 382.400,194.400 382.667,194.400 386.400 C 194.400 390.133,194.267 390.400,192.400 390.400 C 190.800 390.400,190.400 390.800,190.400 392.400 C 190.400 394.267,190.133 394.400,186.400 394.400 L 182.400 394.400 182.400 397.200 L 182.400 400.000 186.400 400.000 C 189.422 400.000,190.400 399.707,190.400 398.800 C 190.400 397.919,191.316 397.600,193.846 397.600 C 197.249 397.600,197.302 397.557,198.046 394.200 C 198.561 391.880,199.372 390.549,200.600 390.010 C 202.369 389.234,202.400 388.977,202.400 375.076 C 202.400 359.751,202.199 358.400,199.914 358.400 C 198.832 358.400,198.400 357.829,198.400 356.400 C 198.400 354.815,197.996 354.400,196.456 354.400 C 195.048 354.400,194.441 353.903,194.256 352.600 C 194.083 351.385,193.355 350.709,192.018 350.521 C 190.928 350.367,189.235 349.377,188.256 348.321 C 186.529 346.457,186.118 346.400,174.438 346.400 L 162.400 346.400 162.400 348.356 M262.400 348.356 C 262.400 350.122,262.031 350.336,258.600 350.556 C 255.391 350.762,254.761 351.072,254.551 352.551 C 254.396 353.642,253.642 354.396,252.551 354.551 C 251.072 354.761,250.762 355.391,250.556 358.600 C 250.336 362.031,250.122 362.400,248.356 362.400 L 246.400 362.400 246.400 373.685 C 246.400 384.769,246.436 384.998,248.400 386.543 C 249.838 387.674,250.400 388.886,250.400 390.858 C 250.400 393.249,250.656 393.600,252.400 393.600 C 254.000 393.600,254.400 394.000,254.400 395.600 C 254.400 397.200,254.800 397.600,256.400 397.600 C 257.644 397.600,258.400 398.053,258.400 398.800 C 258.400 399.707,259.378 400.000,262.400 400.000 L 266.400 400.000 266.400 397.200 C 266.400 394.747,266.152 394.400,264.400 394.400 C 262.800 394.400,262.400 394.000,262.400 392.400 C 262.400 390.800,262.000 390.400,260.400 390.400 C 258.800 390.400,258.400 390.000,258.400 388.400 C 258.400 386.800,258.000 386.400,256.400 386.400 L 254.400 386.400 254.400 374.000 L 254.400 361.600 256.400 361.600 C 258.000 361.600,258.400 361.200,258.400 359.600 C 258.400 358.000,258.800 357.600,260.400 357.600 C 262.000 357.600,262.400 357.200,262.400 355.600 L 262.400 353.600 274.400 353.600 L 286.400 353.600 286.400 355.600 C 286.400 357.200,286.800 357.600,288.400 357.600 C 290.000 357.600,290.400 358.000,290.400 359.600 C 290.400 361.200,290.800 361.600,292.400 361.600 C 294.000 361.600,294.400 362.000,294.400 363.600 C 294.400 365.200,294.800 365.600,296.400 365.600 L 298.400 365.600 298.400 374.000 L 298.400 382.400 296.400 382.400 C 294.533 382.400,294.400 382.667,294.400 386.400 C 294.400 390.133,294.267 390.400,292.400 390.400 C 290.800 390.400,290.400 390.800,290.400 392.400 C 290.400 394.267,290.133 394.400,286.400 394.400 L 282.400 394.400 282.400 397.200 L 282.400 400.000 286.400 400.000 C 289.422 400.000,290.400 399.707,290.400 398.800 C 290.400 397.911,291.333 397.600,294.000 397.600 C 297.199 397.600,297.600 397.399,297.604 395.800 C 297.606 394.810,298.686 392.850,300.004 391.443 L 302.400 388.887 302.400 374.909 C 302.400 359.755,302.196 358.400,299.914 358.400 C 298.832 358.400,298.400 357.829,298.400 356.400 C 298.400 354.815,297.996 354.400,296.456 354.400 C 295.048 354.400,294.441 353.903,294.256 352.600 C 294.083 351.385,293.355 350.709,292.018 350.521 C 290.928 350.367,289.235 349.377,288.256 348.321 C 286.529 346.457,286.118 346.400,274.438 346.400 L 262.400 346.400 262.400 348.356 M362.400 348.356 C 362.400 350.122,362.031 350.336,358.600 350.556 C 355.391 350.762,354.761 351.072,354.551 352.551 C 354.396 353.642,353.642 354.396,352.551 354.551 C 351.072 354.761,350.762 355.391,350.556 358.600 C 350.336 362.031,350.122 362.400,348.356 362.400 L 346.400 362.400 346.400 373.685 C 346.400 384.769,346.436 384.998,348.400 386.543 C 349.838 387.674,350.400 388.886,350.400 390.858 C 350.400 393.249,350.656 393.600,352.400 393.600 C 354.000 393.600,354.400 394.000,354.400 395.600 C 354.400 397.200,354.800 397.600,356.400 397.600 C 357.644 397.600,358.400 398.053,358.400 398.800 C 358.400 399.707,359.378 400.000,362.400 400.000 L 366.400 400.000 366.400 397.200 C 366.400 394.747,366.152 394.400,364.400 394.400 C 362.800 394.400,362.400 394.000,362.400 392.400 C 362.400 390.800,362.000 390.400,360.400 390.400 C 358.800 390.400,358.400 390.000,358.400 388.400 C 358.400 386.800,358.000 386.400,356.400 386.400 L 354.400 386.400 354.400 374.000 L 354.400 361.600 356.400 361.600 C 358.000 361.600,358.400 361.200,358.400 359.600 C 358.400 358.000,358.800 357.600,360.400 357.600 C 362.000 357.600,362.400 357.200,362.400 355.600 L 362.400 353.600 374.400 353.600 L 386.400 353.600 386.400 355.600 C 386.400 357.200,386.800 357.600,388.400 357.600 C 390.000 357.600,390.400 358.000,390.400 359.600 C 390.400 361.200,390.800 361.600,392.400 361.600 C 394.000 361.600,394.400 362.000,394.400 363.600 C 394.400 365.352,394.747 365.600,397.200 365.600 C 399.985 365.600,400.000 365.581,400.000 362.000 C 400.000 360.020,399.640 358.400,399.200 358.400 C 398.760 358.400,398.400 357.500,398.400 356.400 C 398.400 354.815,397.996 354.400,396.456 354.400 C 395.048 354.400,394.441 353.903,394.256 352.600 C 394.083 351.385,393.355 350.709,392.018 350.521 C 390.928 350.367,389.235 349.377,388.256 348.321 C 386.529 346.457,386.118 346.400,374.438 346.400 L 362.400 346.400 362.400 348.356 M394.400 386.400 C 394.400 390.133,394.267 390.400,392.400 390.400 C 390.800 390.400,390.400 390.800,390.400 392.400 C 390.400 394.267,390.133 394.400,386.400 394.400 L 382.400 394.400 382.400 397.200 L 382.400 400.000 386.400 400.000 C 389.422 400.000,390.400 399.707,390.400 398.800 C 390.400 397.911,391.333 397.600,394.000 397.600 C 397.278 397.600,397.600 397.426,397.600 395.657 C 397.600 394.589,398.140 393.174,398.800 392.514 C 399.579 391.735,400.000 389.752,400.000 386.857 L 400.000 382.400 397.200 382.400 L 394.400 382.400 394.400 386.400 " stroke="none" fill="#fff" fill-rule="evenodd"></path><path id="path4" d="M0.000 50.000 L 0.000 53.600 200.000 53.600 L 400.000 53.600 400.000 50.000 L 400.000 46.400 200.000 46.400 L 0.000 46.400 0.000 50.000 M146.400 126.000 L 146.400 153.600 273.200 153.600 L 400.000 153.600 400.000 150.000 L 400.000 146.400 277.200 146.400 L 154.400 146.400 154.400 124.000 L 154.400 101.600 277.200 101.600 C 399.467 101.600,400.000 101.593,400.000 100.000 C 400.000 98.407,399.467 98.400,273.200 98.400 L 146.400 98.400 146.400 126.000 M0.000 200.000 C 0.000 201.596,0.533 201.600,200.000 201.600 C 399.467 201.600,400.000 201.596,400.000 200.000 C 400.000 198.404,399.467 198.400,200.000 198.400 C 0.533 198.400,0.000 198.404,0.000 200.000 M0.000 252.000 C 0.000 253.596,0.533 253.600,200.000 253.600 C 399.467 253.600,400.000 253.596,400.000 252.000 C 400.000 250.404,399.467 250.400,200.000 250.400 C 0.533 250.400,0.000 250.404,0.000 252.000 M162.400 348.356 C 162.400 350.122,162.031 350.336,158.600 350.556 C 155.391 350.762,154.761 351.072,154.551 352.551 C 154.396 353.642,153.642 354.396,152.551 354.551 C 151.072 354.761,150.762 355.391,150.556 358.600 C 150.336 362.031,150.122 362.400,148.356 362.400 L 146.400 362.400 146.400 373.685 C 146.400 384.769,146.436 384.998,148.400 386.543 C 149.838 387.674,150.400 388.886,150.400 390.858 C 150.400 393.249,150.656 393.600,152.400 393.600 C 154.000 393.600,154.400 394.000,154.400 395.600 C 154.400 397.200,154.800 397.600,156.400 397.600 C 157.644 397.600,158.400 398.053,158.400 398.800 C 158.400 399.707,159.378 400.000,162.400 400.000 L 166.400 400.000 166.400 397.200 C 166.400 394.747,166.152 394.400,164.400 394.400 C 162.800 394.400,162.400 394.000,162.400 392.400 C 162.400 390.800,162.000 390.400,160.400 390.400 C 158.800 390.400,158.400 390.000,158.400 388.400 C 158.400 386.800,158.000 386.400,156.400 386.400 L 154.400 386.400 154.400 374.000 L 154.400 361.600 156.400 361.600 C 158.000 361.600,158.400 361.200,158.400 359.600 C 158.400 358.000,158.800 357.600,160.400 357.600 C 162.000 357.600,162.400 357.200,162.400 355.600 L 162.400 353.600 174.400 353.600 L 186.400 353.600 186.400 355.600 C 186.400 357.200,186.800 357.600,188.400 357.600 C 190.000 357.600,190.400 358.000,190.400 359.600 C 190.400 361.200,190.800 361.600,192.400 361.600 C 194.000 361.600,194.400 362.000,194.400 363.600 C 194.400 365.200,194.800 365.600,196.400 365.600 L 198.400 365.600 198.400 374.000 L 198.400 382.400 196.400 382.400 C 194.533 382.400,194.400 382.667,194.400 386.400 C 194.400 390.133,194.267 390.400,192.400 390.400 C 190.800 390.400,190.400 390.800,190.400 392.400 C 190.400 394.267,190.133 394.400,186.400 394.400 L 182.400 394.400 182.400 397.200 L 182.400 400.000 186.400 400.000 C 189.422 400.000,190.400 399.707,190.400 398.800 C 190.400 397.919,191.316 397.600,193.846 397.600 C 197.249 397.600,197.302 397.557,198.046 394.200 C 198.561 391.880,199.372 390.549,200.600 390.010 C 202.369 389.234,202.400 388.977,202.400 375.076 C 202.400 359.751,202.199 358.400,199.914 358.400 C 198.832 358.400,198.400 357.829,198.400 356.400 C 198.400 354.815,197.996 354.400,196.456 354.400 C 195.048 354.400,194.441 353.903,194.256 352.600 C 194.083 351.385,193.355 350.709,192.018 350.521 C 190.928 350.367,189.235 349.377,188.256 348.321 C 186.529 346.457,186.118 346.400,174.438 346.400 L 162.400 346.400 162.400 348.356 M262.400 348.356 C 262.400 350.122,262.031 350.336,258.600 350.556 C 255.391 350.762,254.761 351.072,254.551 352.551 C 254.396 353.642,253.642 354.396,252.551 354.551 C 251.072 354.761,250.762 355.391,250.556 358.600 C 250.336 362.031,250.122 362.400,248.356 362.400 L 246.400 362.400 246.400 373.685 C 246.400 384.769,246.436 384.998,248.400 386.543 C 249.838 387.674,250.400 388.886,250.400 390.858 C 250.400 393.249,250.656 393.600,252.400 393.600 C 254.000 393.600,254.400 394.000,254.400 395.600 C 254.400 397.200,254.800 397.600,256.400 397.600 C 257.644 397.600,258.400 398.053,258.400 398.800 C 258.400 399.707,259.378 400.000,262.400 400.000 L 266.400 400.000 266.400 397.200 C 266.400 394.747,266.152 394.400,264.400 394.400 C 262.800 394.400,262.400 394.000,262.400 392.400 C 262.400 390.800,262.000 390.400,260.400 390.400 C 258.800 390.400,258.400 390.000,258.400 388.400 C 258.400 386.800,258.000 386.400,256.400 386.400 L 254.400 386.400 254.400 374.000 L 254.400 361.600 256.400 361.600 C 258.000 361.600,258.400 361.200,258.400 359.600 C 258.400 358.000,258.800 357.600,260.400 357.600 C 262.000 357.600,262.400 357.200,262.400 355.600 L 262.400 353.600 274.400 353.600 L 286.400 353.600 286.400 355.600 C 286.400 357.200,286.800 357.600,288.400 357.600 C 290.000 357.600,290.400 358.000,290.400 359.600 C 290.400 361.200,290.800 361.600,292.400 361.600 C 294.000 361.600,294.400 362.000,294.400 363.600 C 294.400 365.200,294.800 365.600,296.400 365.600 L 298.400 365.600 298.400 374.000 L 298.400 382.400 296.400 382.400 C 294.533 382.400,294.400 382.667,294.400 386.400 C 294.400 390.133,294.267 390.400,292.400 390.400 C 290.800 390.400,290.400 390.800,290.400 392.400 C 290.400 394.267,290.133 394.400,286.400 394.400 L 282.400 394.400 282.400 397.200 L 282.400 400.000 286.400 400.000 C 289.422 400.000,290.400 399.707,290.400 398.800 C 290.400 397.911,291.333 397.600,294.000 397.600 C 297.199 397.600,297.600 397.399,297.604 395.800 C 297.606 394.810,298.686 392.850,300.004 391.443 L 302.400 388.887 302.400 374.909 C 302.400 359.755,302.196 358.400,299.914 358.400 C 298.832 358.400,298.400 357.829,298.400 356.400 C 298.400 354.815,297.996 354.400,296.456 354.400 C 295.048 354.400,294.441 353.903,294.256 352.600 C 294.083 351.385,293.355 350.709,292.018 350.521 C 290.928 350.367,289.235 349.377,288.256 348.321 C 286.529 346.457,286.118 346.400,274.438 346.400 L 262.400 346.400 262.400 348.356 M362.400 348.356 C 362.400 350.122,362.031 350.336,358.600 350.556 C 355.391 350.762,354.761 351.072,354.551 352.551 C 354.396 353.642,353.642 354.396,352.551 354.551 C 351.072 354.761,350.762 355.391,350.556 358.600 C 350.336 362.031,350.122 362.400,348.356 362.400 L 346.400 362.400 346.400 373.685 C 346.400 384.769,346.436 384.998,348.400 386.543 C 349.838 387.674,350.400 388.886,350.400 390.858 C 350.400 393.249,350.656 393.600,352.400 393.600 C 354.000 393.600,354.400 394.000,354.400 395.600 C 354.400 397.200,354.800 397.600,356.400 397.600 C 357.644 397.600,358.400 398.053,358.400 398.800 C 358.400 399.707,359.378 400.000,362.400 400.000 L 366.400 400.000 366.400 397.200 C 366.400 394.747,366.152 394.400,364.400 394.400 C 362.800 394.400,362.400 394.000,362.400 392.400 C 362.400 390.800,362.000 390.400,360.400 390.400 C 358.800 390.400,358.400 390.000,358.400 388.400 C 358.400 386.800,358.000 386.400,356.400 386.400 L 354.400 386.400 354.400 374.000 L 354.400 361.600 356.400 361.600 C 358.000 361.600,358.400 361.200,358.400 359.600 C 358.400 358.000,358.800 357.600,360.400 357.600 C 362.000 357.600,362.400 357.200,362.400 355.600 L 362.400 353.600 374.400 353.600 L 386.400 353.600 386.400 355.600 C 386.400 357.200,386.800 357.600,388.400 357.600 C 390.000 357.600,390.400 358.000,390.400 359.600 C 390.400 361.200,390.800 361.600,392.400 361.600 C 394.000 361.600,394.400 362.000,394.400 363.600 C 394.400 365.352,394.747 365.600,397.200 365.600 C 399.985 365.600,400.000 365.581,400.000 362.000 C 400.000 360.020,399.640 358.400,399.200 358.400 C 398.760 358.400,398.400 357.500,398.400 356.400 C 398.400 354.815,397.996 354.400,396.456 354.400 C 395.048 354.400,394.441 353.903,394.256 352.600 C 394.083 351.385,393.355 350.709,392.018 350.521 C 390.928 350.367,389.235 349.377,388.256 348.321 C 386.529 346.457,386.118 346.400,374.438 346.400 L 362.400 346.400 362.400 348.356 M394.400 386.400 C 394.400 390.133,394.267 390.400,392.400 390.400 C 390.800 390.400,390.400 390.800,390.400 392.400 C 390.400 394.267,390.133 394.400,386.400 394.400 L 382.400 394.400 382.400 397.200 L 382.400 400.000 386.400 400.000 C 389.422 400.000,390.400 399.707,390.400 398.800 C 390.400 397.911,391.333 397.600,394.000 397.600 C 397.278 397.600,397.600 397.426,397.600 395.657 C 397.600 394.589,398.140 393.174,398.800 392.514 C 399.579 391.735,400.000 389.752,400.000 386.857 L 400.000 382.400 397.200 382.400 L 394.400 382.400 394.400 386.400 " stroke="none" fill="#fff" fill-rule="evenodd"></path></g></svg>